<svg version="1.1" xmlns="http://www.w3.org/2000/svg" xmlns:xlink="http://www.w3.org/1999/xlink" width="500" height="500"><g data-paper-data="{&quot;description&quot;:&quot;Logo for Aqeel Abbas\n====================\n\nThis logo was generated by MarkMaker at http://emblemmatic.org/markmaker/ and may be composed of elements designed by others.\n\nThe font is Baloo Da designed by Ek Type and released under the OFL license via Google Fonts: https://www.google.com/fonts/specimen/Baloo%20Da. The font includes this copyright statement: Copyright (c) 2015, Ek Type. All rights reserved.\n\nMarkMaker uses semantic data from the Princeton University WordNet database http://wordnet.princeton.edu and font descriptions from Google Fonts https://www.google.com/fonts.&quot;}" fill="#25f2f2" fill-rule="nonzero" stroke="none" stroke-width="1" stroke-linecap="butt" stroke-linejoin="miter" stroke-miterlimit="10" stroke-dasharray="" stroke-dashoffset="0" font-family="none" font-weight="none" font-size="none" text-anchor="none" style="mix-blend-mode: normal"><g data-paper-data="{&quot;elementType&quot;:&quot;logo&quot;}"><g data-paper-data="{&quot;elementType&quot;:&quot;text&quot;}"><g data-paper-data="{&quot;baseline&quot;:66.10000000000001,&quot;elementType&quot;:&quot;row&quot;}"><g data-paper-data="{&quot;baselineProportion&quot;:0.7878426698450536,&quot;fontSize&quot;:100,&quot;baseline&quot;:66.10000000000001,&quot;elementType&quot;:&quot;word&quot;}"><path d="M63.60923,222.4234c0.90198,-0.53057 2.26821,-1.03462 4.09869,-1.51214c1.83048,-0.47752 3.67423,-0.71628 5.53124,-0.71628c2.65287,0 5.00066,0.38467 7.04337,1.154c2.04271,0.76933 3.35588,1.97639 3.93951,3.62117c0.95503,2.75899 1.98965,5.96896 3.10386,9.62992c1.11421,3.66096 2.22841,7.44131 3.34262,11.34103c1.11421,3.89972 2.20188,7.74639 3.26303,11.53999c1.06115,3.79361 1.98965,7.14949 2.78552,10.06765c-0.63669,0.7428 -1.59172,1.3397 -2.8651,1.79069c-1.27338,0.45099 -2.78552,0.67648 -4.53641,0.67648c-1.27338,0 -2.34779,-0.10611 -3.22324,-0.31834c-0.87545,-0.21223 -1.59172,-0.53057 -2.14883,-0.95503c-0.5571,-0.42446 -1.00809,-0.98156 -1.35296,-1.67131c-0.34487,-0.68975 -0.64995,-1.48561 -0.91524,-2.38758l-1.43255,-5.49144h-14.40509c-0.42446,1.59172 -0.84892,3.2365 -1.27338,4.93434c-0.42446,1.69784 -0.84892,3.34262 -1.27338,4.93434c-0.7428,0.26529 -1.5254,0.49078 -2.34779,0.67648c-0.82239,0.1857 -1.81722,0.27855 -2.98448,0.27855c-2.70593,0 -4.70885,-0.46425 -6.00875,-1.39276c-1.29991,-0.92851 -1.94986,-2.21515 -1.94986,-3.85993c0,-0.7428 0.10611,-1.48561 0.31834,-2.22841c0.21223,-0.7428 0.45099,-1.61825 0.71628,-2.62634c0.3714,-1.43255 0.88871,-3.20997 1.55193,-5.33227c0.66322,-2.1223 1.39276,-4.41703 2.18862,-6.8842c0.79586,-2.46717 1.64478,-5.00066 2.54676,-7.60048c0.90198,-2.59981 1.7509,-5.05372 2.54676,-7.36172c0.79586,-2.308 1.5254,-4.36397 2.18862,-6.16793c0.66322,-1.80395 1.18053,-3.18345 1.55193,-4.13848M73.15957,232.69001c-0.7428,2.22841 -1.57846,4.70885 -2.50696,7.44131c-0.92851,2.73246 -1.76416,5.50471 -2.50696,8.31675h9.86868c-0.7428,-2.8651 -1.49887,-5.66388 -2.26821,-8.39634c-0.76933,-2.73246 -1.47234,-5.18636 -2.10903,-7.36172z" data-paper-data="{&quot;elementType&quot;:&quot;letter&quot;,&quot;baseline&quot;:61.6,&quot;baselineProportion&quot;:0.9840255591054313,&quot;fontSize&quot;:100}"></path><path d="M115.26064,270.49343c-2.81204,0 -5.43839,-0.4112 -7.87903,-1.23359c-2.44064,-0.82239 -4.56294,-2.0825 -6.36689,-3.78034c-1.80395,-1.69784 -3.20997,-3.82014 -4.21807,-6.36689c-1.00809,-2.54676 -1.51214,-5.5445 -1.51214,-8.99324c0,-3.34262 0.53057,-6.30057 1.59172,-8.87386c1.06115,-2.57329 2.56002,-4.74864 4.49662,-6.52606c1.9366,-1.77742 4.27112,-3.11712 7.00358,-4.0191c2.73246,-0.90198 5.77,-1.35296 9.11261,-1.35296c2.97122,0 5.75673,0.39793 8.35655,1.19379c2.59981,0.79586 4.58947,1.67131 5.96896,2.62634c1.06115,0.7428 1.8968,1.59172 2.50696,2.54676c0.61016,0.95503 0.91524,2.14883 0.91524,3.58138v43.29487c-0.53057,0.15917 -1.37949,0.33161 -2.54676,0.51731c-1.16726,0.1857 -2.36106,0.27855 -3.58138,0.27855c-1.16726,0 -2.21515,-0.07959 -3.14365,-0.23876c-0.92851,-0.15917 -1.7111,-0.47752 -2.34779,-0.95503c-0.63669,-0.47752 -1.11421,-1.12747 -1.43255,-1.94986c-0.31834,-0.82239 -0.47752,-1.8968 -0.47752,-3.22324v-7.56068c-0.90198,0.3714 -1.91007,0.63669 -3.02427,0.79586c-1.11421,0.15917 -2.25494,0.23876 -3.4222,0.23876M121.78671,240.72821c-0.47752,-0.21223 -1.03462,-0.39793 -1.67131,-0.5571c-0.63669,-0.15917 -1.37949,-0.23876 -2.22841,-0.23876c-2.8651,0 -5.06699,0.83565 -6.60565,2.50696c-1.53867,1.67131 -2.308,4.17827 -2.308,7.52089c0,3.50179 0.7428,6.02202 2.22841,7.56068c1.48561,1.53867 3.58138,2.308 6.28731,2.308c1.80395,0 3.2365,-0.3714 4.29765,-1.11421z" data-paper-data="{&quot;elementType&quot;:&quot;letter&quot;,&quot;baseline&quot;:50.1,&quot;baselineProportion&quot;:0.7378497790868924,&quot;fontSize&quot;:100}"></path><path d="M159.51055,270.49343c-3.13039,0 -6.03528,-0.43772 -8.71468,-1.31317c-2.6794,-0.87545 -5.01393,-2.18862 -7.00358,-3.93951c-1.98965,-1.7509 -3.55485,-3.95278 -4.69558,-6.60565c-1.14073,-2.65287 -1.7111,-5.75673 -1.7111,-9.31158c0,-3.50179 0.57037,-6.5128 1.7111,-9.03303c1.14073,-2.52023 2.63961,-4.58947 4.49662,-6.20772c1.85701,-1.61825 3.97931,-2.81204 6.36689,-3.58138c2.38758,-0.76933 4.82823,-1.154 7.32193,-1.154c2.81204,0 5.37207,0.42446 7.68006,1.27338c2.308,0.84892 4.29765,2.01618 5.96896,3.50179c1.67131,1.48561 2.97122,3.26303 3.89972,5.33227c0.92851,2.06924 1.39276,4.32418 1.39276,6.76482c0,1.80395 -0.50405,3.18345 -1.51214,4.13848c-1.00809,0.95503 -2.41411,1.56519 -4.21807,1.83048l-19.65778,2.94469c0.58363,1.7509 1.77742,3.06407 3.58138,3.93951c1.80395,0.87545 3.87319,1.31317 6.20772,1.31317c2.17535,0 4.23133,-0.27855 6.16793,-0.83565c1.9366,-0.5571 3.51506,-1.20706 4.73538,-1.94986c0.84892,0.53057 1.56519,1.27338 2.14883,2.22841c0.58363,0.95503 0.87545,1.96313 0.87545,3.02427c0,2.38758 -1.11421,4.16501 -3.34262,5.33227c-1.69784,0.90198 -3.60791,1.51214 -5.7302,1.83048c-2.1223,0.31834 -4.11195,0.47752 -5.96896,0.47752M157.28213,239.21608c-1.27338,0 -2.37432,0.21223 -3.30283,0.63669c-0.92851,0.42446 -1.68457,0.9683 -2.26821,1.63152c-0.58363,0.66322 -1.02136,1.40602 -1.31317,2.22841c-0.29182,0.82239 -0.46425,1.65804 -0.51731,2.50696l13.60923,-2.22841c-0.15917,-1.06115 -0.7428,-2.1223 -1.7509,-3.18345c-1.00809,-1.06115 -2.4937,-1.59172 -4.45682,-1.59172z" data-paper-data="{&quot;elementType&quot;:&quot;letter&quot;,&quot;baseline&quot;:50.1,&quot;baselineProportion&quot;:0.9690522243713734,&quot;fontSize&quot;:100}"></path><path d="M198.58735,270.49343c-3.13039,0 -6.03528,-0.43772 -8.71468,-1.31317c-2.6794,-0.87545 -5.01393,-2.18862 -7.00358,-3.93951c-1.98965,-1.7509 -3.55485,-3.95278 -4.69558,-6.60565c-1.14073,-2.65287 -1.7111,-5.75673 -1.7111,-9.31158c0,-3.50179 0.57037,-6.5128 1.7111,-9.03303c1.14073,-2.52023 2.63961,-4.58947 4.49662,-6.20772c1.85701,-1.61825 3.97931,-2.81204 6.36689,-3.58138c2.38758,-0.76933 4.82823,-1.154 7.32193,-1.154c2.81204,0 5.37207,0.42446 7.68006,1.27338c2.308,0.84892 4.29765,2.01618 5.96896,3.50179c1.67131,1.48561 2.97122,3.26303 3.89972,5.33227c0.92851,2.06924 1.39276,4.32418 1.39276,6.76482c0,1.80395 -0.50405,3.18345 -1.51214,4.13848c-1.00809,0.95503 -2.41411,1.56519 -4.21807,1.83048l-19.65778,2.94469c0.58363,1.7509 1.77742,3.06407 3.58138,3.93951c1.80395,0.87545 3.87319,1.31317 6.20772,1.31317c2.17535,0 4.23133,-0.27855 6.16793,-0.83565c1.9366,-0.5571 3.51506,-1.20706 4.73538,-1.94986c0.84892,0.53057 1.56519,1.27338 2.14883,2.22841c0.58363,0.95503 0.87545,1.96313 0.87545,3.02427c0,2.38758 -1.11421,4.16501 -3.34262,5.33227c-1.69784,0.90198 -3.60791,1.51214 -5.7302,1.83048c-2.1223,0.31834 -4.11195,0.47752 -5.96896,0.47752M196.35893,239.21608c-1.27338,0 -2.37432,0.21223 -3.30283,0.63669c-0.92851,0.42446 -1.68457,0.9683 -2.26821,1.63152c-0.58363,0.66322 -1.02136,1.40602 -1.31317,2.22841c-0.29182,0.82239 -0.46425,1.65804 -0.51731,2.50696l13.60923,-2.22841c-0.15917,-1.06115 -0.7428,-2.1223 -1.7509,-3.18345c-1.00809,-1.06115 -2.4937,-1.59172 -4.45682,-1.59172z" data-paper-data="{&quot;elementType&quot;:&quot;letter&quot;,&quot;baseline&quot;:50.1,&quot;baselineProportion&quot;:0.9690522243713734,&quot;fontSize&quot;:100}"></path><path d="M230.97891,269.14047c-0.58363,0.10611 -1.44582,0.25202 -2.58655,0.43772c-1.14073,0.1857 -2.29473,0.27855 -3.462,0.27855c-1.16726,0 -2.21515,-0.07959 -3.14365,-0.23876c-0.92851,-0.15917 -1.7111,-0.47752 -2.34779,-0.95503c-0.63669,-0.47752 -1.12747,-1.12747 -1.47234,-1.94986c-0.34487,-0.82239 -0.51731,-1.8968 -0.51731,-3.22324v-46.15997c0.58363,-0.10611 1.44582,-0.25202 2.58655,-0.43772c1.14073,-0.1857 2.29473,-0.27855 3.462,-0.27855c1.16726,0 2.21515,0.07959 3.14365,0.23876c0.92851,0.15917 1.7111,0.47752 2.34779,0.95503c0.63669,0.47752 1.12747,1.12747 1.47234,1.94986c0.34487,0.82239 0.51731,1.8968 0.51731,3.22324z" data-paper-data="{&quot;elementType&quot;:&quot;letter&quot;,&quot;baseline&quot;:66.10000000000001,&quot;baselineProportion&quot;:0.9880418535127056,&quot;fontSize&quot;:100}"></path></g><g data-paper-data="{&quot;baselineProportion&quot;:0.9749262536873156,&quot;fontSize&quot;:100,&quot;baseline&quot;:66.10000000000001,&quot;elementType&quot;:&quot;word&quot;}"><path d="M259.86868,222.4234c0.90198,-0.53057 2.26821,-1.03462 4.09869,-1.51214c1.83048,-0.47752 3.67423,-0.71628 5.53124,-0.71628c2.65287,0 5.00066,0.38467 7.04337,1.154c2.04271,0.76933 3.35588,1.97639 3.93951,3.62117c0.95503,2.75899 1.98965,5.96896 3.10386,9.62992c1.11421,3.66096 2.22841,7.44131 3.34262,11.34103c1.11421,3.89972 2.20188,7.74639 3.26303,11.53999c1.06115,3.79361 1.98965,7.14949 2.78552,10.06765c-0.63669,0.7428 -1.59172,1.3397 -2.8651,1.79069c-1.27338,0.45099 -2.78552,0.67648 -4.53641,0.67648c-1.27338,0 -2.34779,-0.10611 -3.22324,-0.31834c-0.87545,-0.21223 -1.59172,-0.53057 -2.14883,-0.95503c-0.5571,-0.42446 -1.00809,-0.98156 -1.35296,-1.67131c-0.34487,-0.68975 -0.64995,-1.48561 -0.91524,-2.38758l-1.43255,-5.49144h-14.40509c-0.42446,1.59172 -0.84892,3.2365 -1.27338,4.93434c-0.42446,1.69784 -0.84892,3.34262 -1.27338,4.93434c-0.7428,0.26529 -1.5254,0.49078 -2.34779,0.67648c-0.82239,0.1857 -1.81722,0.27855 -2.98448,0.27855c-2.70593,0 -4.70885,-0.46425 -6.00875,-1.39276c-1.29991,-0.92851 -1.94986,-2.21515 -1.94986,-3.85993c0,-0.7428 0.10611,-1.48561 0.31834,-2.22841c0.21223,-0.7428 0.45099,-1.61825 0.71628,-2.62634c0.3714,-1.43255 0.88871,-3.20997 1.55193,-5.33227c0.66322,-2.1223 1.39276,-4.41703 2.18862,-6.8842c0.79586,-2.46717 1.64478,-5.00066 2.54676,-7.60048c0.90198,-2.59981 1.7509,-5.05372 2.54676,-7.36172c0.79586,-2.308 1.5254,-4.36397 2.18862,-6.16793c0.66322,-1.80395 1.18053,-3.18345 1.55193,-4.13848M269.41902,232.69001c-0.7428,2.22841 -1.57846,4.70885 -2.50696,7.44131c-0.92851,2.73246 -1.76416,5.50471 -2.50696,8.31675h9.86868c-0.7428,-2.8651 -1.49887,-5.66388 -2.26821,-8.39634c-0.76933,-2.73246 -1.47234,-5.18636 -2.10903,-7.36172z" data-paper-data="{&quot;elementType&quot;:&quot;letter&quot;,&quot;baseline&quot;:61.6,&quot;baselineProportion&quot;:0.9840255591054313,&quot;fontSize&quot;:100}"></path><path d="M294.01114,217.40947c0.53057,-0.15917 1.37949,-0.33161 2.54676,-0.51731c1.16726,-0.1857 2.36106,-0.27855 3.58138,-0.27855c1.16726,0 2.21515,0.07959 3.14365,0.23876c0.92851,0.15917 1.7111,0.47752 2.34779,0.95503c0.63669,0.47752 1.11421,1.12747 1.43255,1.94986c0.31834,0.82239 0.47752,1.8968 0.47752,3.22324v7.79944c1.32644,-0.53057 2.58655,-0.90198 3.78034,-1.11421c1.19379,-0.21223 2.50696,-0.31834 3.93951,-0.31834c2.54676,0 4.96087,0.45099 7.24234,1.35296c2.28147,0.90198 4.29765,2.21515 6.04855,3.93951c1.7509,1.72437 3.13039,3.85993 4.13848,6.40669c1.00809,2.54676 1.51214,5.49144 1.51214,8.83406c0,3.44873 -0.51731,6.45974 -1.55193,9.03303c-1.03462,2.57329 -2.48044,4.70885 -4.33745,6.40669c-1.85701,1.69784 -4.12522,2.98448 -6.80462,3.85993c-2.6794,0.87545 -5.63735,1.31317 -8.87386,1.31317c-3.50179,0 -6.47301,-0.4112 -8.91365,-1.23359c-2.44064,-0.82239 -4.50988,-1.84375 -6.20772,-3.06407c-2.33453,-1.64478 -3.50179,-3.76708 -3.50179,-6.36689v-42.41942M312.6343,259.82889c2.44064,0 4.33745,-0.83565 5.69041,-2.50696c1.35296,-1.67131 2.02945,-4.15174 2.02945,-7.44131c0,-3.34262 -0.68975,-5.83632 -2.06924,-7.4811c-1.37949,-1.64478 -3.2365,-2.46717 -5.57103,-2.46717c-1.06115,0 -1.97639,0.10611 -2.74572,0.31834c-0.76933,0.21223 -1.60499,0.53057 -2.50696,0.95503v17.34978c0.58363,0.3714 1.28664,0.67648 2.10903,0.91524c0.82239,0.23876 1.84375,0.35814 3.06407,0.35814z" data-paper-data="{&quot;elementType&quot;:&quot;letter&quot;,&quot;baseline&quot;:66.10000000000001,&quot;baselineProportion&quot;:0.9763663220088628,&quot;fontSize&quot;:100}"></path><path d="M336.35097,217.40947c0.53057,-0.15917 1.37949,-0.33161 2.54676,-0.51731c1.16726,-0.1857 2.36106,-0.27855 3.58138,-0.27855c1.16726,0 2.21515,0.07959 3.14365,0.23876c0.92851,0.15917 1.7111,0.47752 2.34779,0.95503c0.63669,0.47752 1.11421,1.12747 1.43255,1.94986c0.31834,0.82239 0.47752,1.8968 0.47752,3.22324v7.79944c1.32644,-0.53057 2.58655,-0.90198 3.78034,-1.11421c1.19379,-0.21223 2.50696,-0.31834 3.93951,-0.31834c2.54676,0 4.96087,0.45099 7.24234,1.35296c2.28147,0.90198 4.29765,2.21515 6.04855,3.93951c1.7509,1.72437 3.13039,3.85993 4.13848,6.40669c1.00809,2.54676 1.51214,5.49144 1.51214,8.83406c0,3.44873 -0.51731,6.45974 -1.55193,9.03303c-1.03462,2.57329 -2.48044,4.70885 -4.33745,6.40669c-1.85701,1.69784 -4.12522,2.98448 -6.80462,3.85993c-2.6794,0.87545 -5.63735,1.31317 -8.87386,1.31317c-3.50179,0 -6.47301,-0.4112 -8.91365,-1.23359c-2.44064,-0.82239 -4.50988,-1.84375 -6.20772,-3.06407c-2.33453,-1.64478 -3.50179,-3.76708 -3.50179,-6.36689v-42.41942M354.97413,259.82889c2.44064,0 4.33745,-0.83565 5.69041,-2.50696c1.35296,-1.67131 2.02945,-4.15174 2.02945,-7.44131c0,-3.34262 -0.68975,-5.83632 -2.06924,-7.4811c-1.37949,-1.64478 -3.2365,-2.46717 -5.57103,-2.46717c-1.06115,0 -1.97639,0.10611 -2.74572,0.31834c-0.76933,0.21223 -1.60499,0.53057 -2.50696,0.95503v17.34978c0.58363,0.3714 1.28664,0.67648 2.10903,0.91524c0.82239,0.23876 1.84375,0.35814 3.06407,0.35814z" data-paper-data="{&quot;elementType&quot;:&quot;letter&quot;,&quot;baseline&quot;:66.10000000000001,&quot;baselineProportion&quot;:0.9763663220088628,&quot;fontSize&quot;:100}"></path><path d="M394.60804,229.34739c2.8651,0 5.47818,0.29182 7.83924,0.87545c2.36106,0.58363 4.37724,1.47234 6.04855,2.66614c1.67131,1.19379 2.95795,2.70593 3.85993,4.53641c0.90198,1.83048 1.35296,3.99257 1.35296,6.48627v17.8273c0,1.37949 -0.38467,2.50696 -1.154,3.38241c-0.76933,0.87545 -1.68457,1.63152 -2.74572,2.26821c-3.44873,2.06924 -8.30349,3.10386 -14.56427,3.10386c-2.81204,0 -5.34554,-0.26529 -7.60048,-0.79586c-2.25494,-0.53057 -4.19154,-1.32644 -5.80979,-2.38758c-1.61825,-1.06115 -2.8651,-2.41411 -3.74055,-4.05889c-0.87545,-1.64478 -1.31317,-3.55485 -1.31317,-5.7302c0,-3.66096 1.08768,-6.47301 3.26303,-8.43613c2.17535,-1.96313 5.5445,-3.18345 10.10744,-3.66096l10.42579,-1.11421v-0.5571c0,-1.53867 -0.67648,-2.63961 -2.02945,-3.30283c-1.35296,-0.66322 -3.30283,-0.99483 -5.84958,-0.99483c-2.01618,0 -3.97931,0.21223 -5.88938,0.63669c-1.91007,0.42446 -3.63443,0.95503 -5.1731,1.59172c-0.68975,-0.47752 -1.27338,-1.20706 -1.7509,-2.18862c-0.47752,-0.98156 -0.71628,-2.00292 -0.71628,-3.06407c0,-1.37949 0.33161,-2.48044 0.99483,-3.30283c0.66322,-0.82239 1.68457,-1.5254 3.06407,-2.10903c1.53867,-0.58363 3.35588,-1.00809 5.45165,-1.27338c2.09577,-0.26529 4.07216,-0.39793 5.92917,-0.39793zM395.24473,260.62475c0.90198,0 1.8968,-0.09285 2.98448,-0.27855c1.08768,-0.1857 1.8968,-0.43772 2.42738,-0.75607v-6.36689l-5.7302,0.47752c-1.48561,0.10611 -2.70593,0.42446 -3.66096,0.95503c-0.95503,0.53057 -1.43255,1.32644 -1.43255,2.38758c0,1.06115 0.4112,1.92333 1.23359,2.58655c0.82239,0.66322 2.21515,0.99483 4.17827,0.99483" data-paper-data="{&quot;elementType&quot;:&quot;letter&quot;,&quot;baseline&quot;:50.1,&quot;baselineProportion&quot;:0.9690522243713734,&quot;fontSize&quot;:100}"></path><path d="M450,257.68006c0,4.03237 -1.51214,7.18928 -4.53641,9.47075c-3.02427,2.28147 -7.4811,3.4222 -13.37047,3.4222c-2.22841,0 -4.29765,-0.15917 -6.20772,-0.47752c-1.91007,-0.31834 -3.54158,-0.80913 -4.89455,-1.47234c-1.35296,-0.66322 -2.41411,-1.49887 -3.18345,-2.50696c-0.76933,-1.00809 -1.154,-2.20188 -1.154,-3.58138c0,-1.27338 0.26529,-2.34779 0.79586,-3.22324c0.53057,-0.87545 1.16726,-1.60499 1.91007,-2.18862c1.53867,0.84892 3.30283,1.60499 5.29248,2.26821c1.98965,0.66322 4.28439,0.99483 6.8842,0.99483c1.64478,0 2.90489,-0.23876 3.78034,-0.71628c0.87545,-0.47752 1.31317,-1.11421 1.31317,-1.91007c0,-0.7428 -0.31834,-1.32644 -0.95503,-1.7509c-0.63669,-0.42446 -1.69784,-0.76933 -3.18345,-1.03462l-2.38758,-0.47752c-4.616,-0.90198 -8.05147,-2.32126 -10.30641,-4.25786c-2.25494,-1.9366 -3.38241,-4.70885 -3.38241,-8.31675c0,-1.96313 0.42446,-3.74055 1.27338,-5.33227c0.84892,-1.59172 2.04271,-2.91816 3.58138,-3.97931c1.53867,-1.06115 3.38241,-1.88354 5.53124,-2.46717c2.14883,-0.58363 4.52315,-0.87545 7.12296,-0.87545c1.96313,0 3.80687,0.14591 5.53124,0.43772c1.72437,0.29182 3.22324,0.72954 4.49662,1.31317c1.27338,0.58363 2.28147,1.3397 3.02427,2.26821c0.7428,0.92851 1.11421,2.02945 1.11421,3.30283c0,1.22032 -0.22549,2.26821 -0.67648,3.14365c-0.45099,0.87545 -1.02136,1.60499 -1.7111,2.18862c-0.42446,-0.26529 -1.06115,-0.54384 -1.91007,-0.83565c-0.84892,-0.29182 -1.77742,-0.5571 -2.78552,-0.79586c-1.00809,-0.23876 -2.02945,-0.43772 -3.06407,-0.5969c-1.03462,-0.15917 -1.97639,-0.23876 -2.82531,-0.23876c-1.7509,0 -3.10386,0.19897 -4.05889,0.5969c-0.95503,0.39793 -1.43255,1.02136 -1.43255,1.87027c0,0.58363 0.26529,1.06115 0.79586,1.43255c0.53057,0.3714 1.53867,0.71628 3.02427,1.03462l2.46717,0.5571c5.09351,1.16726 8.71468,2.77225 10.86351,4.81496c2.14883,2.04271 3.22324,4.68232 3.22324,7.91882z" data-paper-data="{&quot;elementType&quot;:&quot;letter&quot;,&quot;baseline&quot;:50.2,&quot;baselineProportion&quot;:0.9672447013487475,&quot;fontSize&quot;:100}"></path></g></g></g></g></g></svg>